PathFileType	4	(X/Y/Z)	P:\Projects\LMB_grand_challenge_database\project_only\opensim\experimental_data\SixthCompetition/DM_bouncy5_new.trc
DataRate	CameraRate	NumFrames	NumMarkers	Units	OrigDataRate	OrigDataStartFrame	OrigNumFrames
120	120	4	68	mm	120	42	342
Frame#	Time	Sternum			Neck			R_Shoulder			L_Shoulder			Xiphoid			Thoracic			R_Asis			L_Asis			R_Psis			L_Psis			Lumbar			R_Elbow			R_ElbowMedial			R_ShoulderAnterior			R_ShoulderPosterior			R_Wrist			R_Radius			R_Ulna			L_Elbow			L_ElbowMedial			L_ShoulderAnterior			L_ShoulderPosterior			L_Wrist			L_Ulna			L_Radius			L_Thigh_Superior			L_Thigh_Inferior			L_Thigh_Lateral			L_Knee_Lateral			L_Knee_Medial			L_Patella			L_Shank_Superior			L_Shank_Inferior			L_Shank_Lateral			L_Ankle_Lateral			L_Ankle_Medial			R_Thigh_Superior			R_Thigh_Inferior			R_Thigh_Lateral			R_Knee_Lateral			R_Knee_Medial			R_Patella			R_Shank_Superior			R_Shank_Inferior			R_Shank_Lateral			R_Ankle_Lateral			RankleMedial			R_Heel			R_Toe			R_Midfoot_Medial			R_Midfoot_Lateral			R_Hindfoot			R_Midfoot_Superior			R_ToeMedial			R_ToeLateral			L_Heel			L_Toe			L_Midfoot_Medial			L_Midfoot_Lateral			L_Hindfoot			L_Midfoot_Superior			L_ToeMedial			L_ToeLateral			Oglobal			Sacral			Xglobal			Yglobal			Zglobal			
		X1	Y1	Z1	X2	Y2	Z2	X3	Y3	Z3	X4	Y4	Z4	X5	Y5	Z5	X6	Y6	Z6	X7	Y7	Z7	X8	Y8	Z8	X9	Y9	Z9	X10	Y10	Z10	X11	Y11	Z11	X12	Y12	Z12	X13	Y13	Z13	X14	Y14	Z14	X15	Y15	Z15	X16	Y16	Z16	X17	Y17	Z17	X18	Y18	Z18	X19	Y19	Z19	X20	Y20	Z20	X21	Y21	Z21	X22	Y22	Z22	X23	Y23	Z23	X24	Y24	Z24	X25	Y25	Z25	X26	Y26	Z26	X27	Y27	Z27	X28	Y28	Z28	X29	Y29	Z29	X30	Y30	Z30	X31	Y31	Z31	X32	Y32	Z32	X33	Y33	Z33	X34	Y34	Z34	X35	Y35	Z35	X36	Y36	Z36	X37	Y37	Z37	X38	Y38	Z38	X39	Y39	Z39	X40	Y40	Z40	X41	Y41	Z41	X42	Y42	Z42	X43	Y43	Z43	X44	Y44	Z44	X45	Y45	Z45	X46	Y46	Z46	X47	Y47	Z47	X48	Y48	Z48	X49	Y49	Z49	X50	Y50	Z50	X51	Y51	Z51	X52	Y52	Z52	X53	Y53	Z53	X54	Y54	Z54	X55	Y55	Z55	X56	Y56	Z56	X57	Y57	Z57	X58	Y58	Z58	X59	Y59	Z59	X60	Y60	Z60	X61	Y61	Z61	X62	Y62	Z62	X63	Y63	Z63	X64	Y64	Z64	X65	Y65	Z65	X66	Y66	Z66	X67	Y67	Z67	X68	Y68	Z68	

43	1.208333	-762.016	1342.11	186.569	-914.8200000000001	1429.2	220.097	-780.346	1371.64	365.588	-877.128	1377.22	25.8366	-754.878	1173.1	192.913	-1017.5	1255.38	218.998	-851.6559999999999	959.2670000000001	341.311	-859.667	945.484	62.608	-1055.91	1007.55	236.61	-1057.39	1003.75	158.992	-1050.41	1054.8	196.622	-773.784	1048.33	447.826	-0	0	0	-0	0	0	-0	0	0	-672.671	801.0599999999999	374.893	-683.658	814.056	333.937	-713.73	791.179	393.301	-1000.57	1064.93	-70.7123	-0	0	0	-0	0	0	-0	0	0	-999.848	797.359	-104.123	-1043.23	819.397	-103.217	-983.28	808.309	-60.9466	-894.129	787.369	18.4917	-761.36	605.572	56.1567	-759.408	705.355	75.9846	-0	0	0	-0	0	0	-676.069	552.668	122.368	-721.585	470.066	55.9634	-646.2569999999999	207.926	45.5357	-646.807	340.537	120.727	-0	0	0	-0	0	0	-967.511	783.423	371.131	-1018.06	572.319	322.286	-914.691	676.735	338.832	-0	0	0	-0	0	0	-974.687	464.795	245.678	-1117.96	395.427	333.914	-1195.95	201.952	318.271	-1077.16	305.856	255.031	-0	0	0	-0	0	0	-1320.5	82.23739999999999	262.81	-1028.63	47.0471	264.179	-1102.17	26.8493	217.196	-1116.26	25.846	333.613	-1228.2	36.6383	317.847	-1153.61	120.277	270.429	-1062.18	36.1829	222.204	-1069.3	37.4187	313.302	-667.234	63.5336	95.4635	-391.563	175.218	86.2059	-454.689	126.51	140.48	-466.017	117.018	26.9564	-561.167	69.30629999999999	36.9697	-538.381	182.063	84.9308	-417.022	142.795	129.65	-419.029	144.012	33.9278	-0	0	0	-1056.65	1005.65	197.801	-200	0	0	-0	0	200	-0	200	0	
44	1.216667	-750.942	1338.45	184.366	-903.433	1426.06	218.244	-768.773	1367.97	363.503	-866.992	1373.92	24.0072	-744.242	1169.43	191.835	-1006.97	1252.62	217.17	-842.2809999999999	956.3869999999999	341.096	-848.756	941.665	62.2138	-1045.82	1004.38	234.885	-1046.94	1000.3	157.422	-1040.19	1051.51	194.894	-762.4160000000001	1044.51	445.454	-0	0	0	-0	0	0	-0	0	0	-662.015	797.1319999999999	372.758	-672.732	810.196	331.794	-703.043	787.157	390.879	-992.874	1062.32	-71.17789999999999	-0	0	0	-0	0	0	-0	0	0	-995.157	794.92	-104.574	-1038.17	816.861	-102.886	-978.025	805.497	-61.6367	-885.372	783.8440000000001	17.7751	-748.635	600.95	55.5446	-750.943	699.356	77.3578	-0	0	0	-0	0	0	-664.9400000000001	552.722	124.773	-708.938	468.292	56.2635	-628.502	207.644	45.5365	-632.174	339.392	122.278	-0	0	0	-0	0	0	-959.229	781.071	371.114	-1011.87	570.638	322.01	-907.5599999999999	674.0119999999999	339.093	-0	0	0	-0	0	0	-969.466	462.09	245.972	-1113.81	394.663	333.754	-1194.5	202.227	318.14	-1073.5	304.945	254.49	-0	0	0	-0	0	0	-1320.17	83.3154	262.803	-1028.52	46.9487	264.087	-1102.24	26.5915	216.953	-1116.25	25.5146	333.378	-1228.04	37.0492	317.727	-1153.03	120.274	270.354	-1062.07	35.9995	222.229	-1069.28	37.3825	313.369	-645.278	62.1345	95.7954	-372.781	181.248	85.7144	-434.127	130.228	139.908	-445.866	120.972	26.4067	-539.776	70.8937	36.7909	-519.298	184.113	85.0754	-397.074	147.931	129.348	-399.885	149.341	33.2467	-0	0	0	-1046.38	1002.34	196.153	-200	0	0	-0	0	200	-0	200	0	
45	1.225	-739.8049999999999	1334.47	182.277	-891.934	1422.99	216.389	-756.74	1364.19	361.053	-856.1420000000001	1370.08	22.0293	-733.462	1165.85	190.647	-996.292	1249.69	215.193	-832.976	953.653	341.005	-837.745	937.861	62.1347	-1035.82	1001.19	233.292	-1036.5	996.792	155.965	-1030.01	1048.16	193.229	-751.327	1040.75	443.148	-0	0	0	-0	0	0	-0	0	0	-651.251	793.047	370.672	-661.926	805.9930000000001	329.703	-692.802	783.225	388.856	-985.111	1059.69	-71.78449999999999	-0	0	0	-0	0	0	-0	0	0	-990.182	792.229	-104.987	-1033.17	814.475	-102.774	-972.119	802.463	-62.5646	-875.14	780.306	17.8468	-735.948	597.838	56.5473	-741.532	694.349	78.8309	-0	0	0	-0	0	0	-654.307	553.201	126.072	-696.5650000000001	465.82	56.2682	-611.4349999999999	206.475	45.9839	-616.23	339.222	120.74	-0	0	0	-0	0	0	-950.943	778.563	371.294	-1005.25	568.4880000000001	321.45	-900.228	671.234	339.391	-0	0	0	-0	0	0	-963.724	459.679	246.081	-1109.55	393.906	333.462	-1192.73	202.485	317.786	-1069.76	304.137	254.45	-0	0	0	-0	0	0	-1319.68	84.4414	262.698	-1028.45	46.6597	264.062	-1102.15	26.2736	216.748	-1116.13	25.242	333.178	-1227.81	37.5418	317.57	-1152.32	120.267	270.205	-1061.91	35.7528	222.252	-1069.21	37.29	313.349	-626.383	61.1829	95.7745	-355.241	184.88	85.17619999999999	-416.612	132.934	140.668	-427.366	122.261	27.1934	-520.393	71.15819999999999	37.4676	-501.954	185.141	84.6058	-379.006	151.588	129.017	-381.915	152.049	33.1383	-0	0	0	-1036.16	998.99	194.628	-200	0	0	-0	0	200	-0	200	0	
46	1.233333	-728.535	1330.69	180.06	-880.3630000000001	1419.74	214.226	-744.809	1360.39	358.628	-845.34	1366.48	19.9823	-722.534	1162.31	189.596	-985.437	1246.67	213.001	-823.4690000000001	950.527	340.994	-826.326	933.893	62.2643	-1025.52	997.9640000000001	231.741	-1025.77	993.181	154.398	-1019.41	1044.73	191.633	-740.048	1036.84	440.566	-0	0	0	-0	0	0	-0	0	0	-640.817	788.586	368.692	-651.038	801.87	327.705	-682.423	779.247	386.807	-977.421	1057	-72.45959999999999	-0	0	0	-0	0	0	-0	0	0	-985.014	789.359	-105.322	-1028.65	812.953	-103.614	-966.502	799.5359999999999	-62.7554	-863.018	776.582	18.3752	-723.731	596.011	58.4865	-730.289	691.679	80.08069999999999	-0	0	0	-0	0	0	-642.744	552.697	126.773	-684.371	462.773	56.131	-596.039	204.554	46.6419	-601.527	337.991	120.479	-0	0	0	-0	0	0	-942.739	776.592	371.57	-999.081	566.477	321.855	-892.729	668.345	339.763	-0	0	0	-0	0	0	-957.648	456.855	246.751	-1105.09	393.163	333.139	-1190.96	202.939	317.701	-1066.34	303.527	254.977	-0	0	0	-0	0	0	-1322.57	88.822	266.568	-1028.33	46.3782	264.192	-1108.21	26.1784	212.309	-1118.77	21.9721	329.029	-1227.57	38.096	317.418	-1151.53	120.303	270.091	-1061.8	35.5064	222.204	-1069.17	37.1952	313.315	-609.162	59.8886	96.96680000000001	-339.431	186.378	84.3623	-400.16	134.22	141.244	-410.629	121.986	27.8998	-503.374	69.7632	38.631	-485.966	184.822	84.3933	-362.539	153.488	128.267	-366.14	153.069	32.4145	-0	0	0	-1025.64	995.573	193.07	-200	0	0	-0	0	200	-0	200	0	
